HIERARCHY
ROOT root
{
	OFFSET	0	13.1	24.9
	CHANNELS 6  Xposition Yposition Zposition Xrotation Yrotation Zrotation
	JOINT spine_1
	{
		OFFSET	0	9.99999	0
		CHANNELS 3  Xrotation Yrotation Zrotation
		JOINT spine_2
		{
			OFFSET	0	112	-10
			CHANNELS 3  Xrotation Yrotation Zrotation
			JOINT spine_3
			{
				OFFSET	0	206.5	19.3
				CHANNELS 3  Xrotation Yrotation Zrotation
				JOINT spine_4
				{
					OFFSET	0	110.4	14.6
					CHANNELS 3  Xrotation Yrotation Zrotation
					JOINT neck_1
					{
						OFFSET	0	71.8	-50.3
						CHANNELS 3  Xrotation Yrotation Zrotation
						JOINT neck_2
						{
							OFFSET	0	86.2	-25.8
							CHANNELS 3  Xrotation Yrotation Zrotation
							JOINT head_ee
							{
								OFFSET	0	179.8	-8.7
								CHANNELS 3  Xrotation Yrotation Zrotation
								End Site
								{
									OFFSET	1	0	0
								}
							}
						}
					}
					JOINT left_clavicle
					{
						OFFSET	-43.2	22.4	-70.8
						CHANNELS 3  Xrotation Yrotation Zrotation
						JOINT left_shoulder
						{
							OFFSET	-93.9	-5.79999	48.7
							CHANNELS 3  Xrotation Yrotation Zrotation
							JOINT left_elbow
							{
								OFFSET	-291.4	-30.8	15.2
								CHANNELS 3  Xrotation Yrotation Zrotation
								JOINT left_lowarm_twist
								{
									OFFSET	-110.7	-3.89999	13.6
									CHANNELS 3  Xrotation Yrotation Zrotation
									JOINT left_hand
									{
										OFFSET	-110.7	-3.89999	13.6
										CHANNELS 3  Xrotation Yrotation Zrotation
										JOINT left_ee
										{
											OFFSET	-80.8	-5.10001	12.1
											CHANNELS 3  Xrotation Yrotation Zrotation
											End Site
											{
												OFFSET	1	0	0
											}
										}
									}
								}
							}
						}
					}
					JOINT right_clavicle
					{
						OFFSET	43.2	22.4	-70.8
						CHANNELS 3  Xrotation Yrotation Zrotation
						JOINT right_shoulder
						{
							OFFSET	93.9	-5.79999	48.7
							CHANNELS 3  Xrotation Yrotation Zrotation
							JOINT right_elbow
							{
								OFFSET	291.4	-30.8	15.2
								CHANNELS 3  Xrotation Yrotation Zrotation
								JOINT right_lowarm_twist
								{
									OFFSET	110.7	-3.89999	13.6
									CHANNELS 3  Xrotation Yrotation Zrotation
									JOINT right_hand
									{
										OFFSET	110.7	-3.89999	13.6
										CHANNELS 3  Xrotation Yrotation Zrotation
										JOINT right_ee
										{
											OFFSET	80.8	-5.10001	12.1
											CHANNELS 3  Xrotation Yrotation Zrotation
											End Site
											{
												OFFSET	1	0	0
											}
										}
									}
								}
							}
						}
					}
				}
			}
		}
	}
	JOINT left_hip
	{
		OFFSET	-82.8	-127.5	0.300001
		CHANNELS 3  Xrotation Yrotation Zrotation
		JOINT left_knee
		{
			OFFSET	-28.2	-396.7	2.2
			CHANNELS 3  Xrotation Yrotation Zrotation
			JOINT left_ankle
			{
				OFFSET	-11.7	-411.3	35.4
				CHANNELS 3  Xrotation Yrotation Zrotation
				JOINT left_toes
				{
					OFFSET	0	-60	-88.6
					CHANNELS 3  Xrotation Yrotation Zrotation
					JOINT left_foot_ee
					{
						OFFSET	-22.5	-16.5	-42.2
						CHANNELS 3  Xrotation Yrotation Zrotation
						End Site
						{
							OFFSET	1	0	0
						}
					}
				}
			}
		}
	}
	JOINT right_hip
	{
		OFFSET	82.8	-127.5	0.300001
		CHANNELS 3  Xrotation Yrotation Zrotation
		JOINT right_knee
		{
			OFFSET	28.2	-396.7	2.2
			CHANNELS 3  Xrotation Yrotation Zrotation
			JOINT right_ankle
			{
				OFFSET	11.7	-411.3	35.4
				CHANNELS 3  Xrotation Yrotation Zrotation
				JOINT right_toes
				{
					OFFSET	0	-60	-88.6
					CHANNELS 3  Xrotation Yrotation Zrotation
					JOINT right_foot_ee
					{
						OFFSET	22.5	-16.5	-42.2
						CHANNELS 3  Xrotation Yrotation Zrotation
						End Site
						{
							OFFSET	1	0	0
						}
					}
				}
			}
		}
	}
}
MOTION
Frames: 12
Frame Time: 0.02
3065.8 762.304 -682.721 166.238 -64.577 161.082 -2.5828 0.720753 3.22579 -2.57715 0.51414 3.26506 -2.54024 -0.32974 3.28878 -2.55528 0.193507 3.29958 -7.00067 12.6422 -5.21427 -6.88042 27.2289 -2.64737 -0.0 0.0 -0.0 3.06642 9.99104 6.47427 -29.4787 -26.0146 66.6869 0.417441 -11.6836 0.0427102 27.53 0.136067 -3.48047 1.29315 29.3711 18.6887 -0.0 0.0 -0.0 6.59832 18.8228 -11.9965 10.7292 28.3918 -63.3037 2.5412 51.5285 -1.22666 -10.3577 0.477896 -1.2332 -0.112133 3.75235 2.34324 0.0 0.0 0.0 2.33471 11.2165 -1.02618 -4.07826 0.146299 0.608659 -22.0295 25.1202 3.45467 38.083 -0.0 -0.0 -0.0 0.0 -0.0 3.54856 36.183 0.979482 -5.22463 -0.179581 -0.781439 3.22796 12.9883 0.502715 -15.4531 0.0 0.0 0.0 0.0 0.0 
3073.69 765.216 -677.769 168.048 -66.0051 163.7 -2.53914 0.617452 2.96249 -2.53436 0.427777 2.99573 -2.50573 -0.343298 3.00658 -2.51832 0.135619 3.02306 -5.5167 13.0584 -4.61286 -5.28103 27.4934 -2.34229 -0.0 0.0 -0.0 2.62443 10.4133 5.73323 -29.959 -25.8228 66.4209 0.536756 -14.8902 0.0701426 26.5673 0.159632 -3.35974 1.2219 28.8787 18.1497 -0.0 0.0 -0.0 6.82501 17.7805 -12.5673 10.5515 27.7934 -63.6116 2.68312 53.0341 -1.33894 -10.2718 0.473026 -1.22335 -0.164328 6.45058 3.84749 0.0 0.0 0.0 0.283525 12.18 0.370978 1.09351 -0.0465715 -0.161338 -22.8728 25.5575 3.59567 37.9975 -0.0 -0.0 -0.0 0.0 -0.0 4.44581 34.6959 -0.444665 -4.20172 -0.15005 -0.627235 6.05434 14.5364 0.944501 -15.3073 0.0 0.0 0.0 0.0 0.0 
3081.34 765.398 -679.979 170.107 -66.063 165.691 -2.38627 0.548818 2.82057 -2.38192 0.368301 2.84974 -2.35819 -0.356633 2.85123 -2.36952 0.0979489 2.87176 -4.20972 13.3538 -4.26578 -3.86279 27.6882 -2.27373 -0.0 0.0 -0.0 2.73256 10.7327 5.93629 -29.7878 -25.7194 66.0729 0.622284 -17.1326 0.0937383 25.8956 0.17487 -3.2753 1.17143 28.487 17.7534 -0.0 0.0 -0.0 6.75054 16.7461 -12.4793 9.27082 27.1128 -63.5319 2.80435 54.242 -1.43657 -10.2121 0.469647 -1.2165 -0.198171 8.32692 4.87909 0.0 0.0 0.0 -1.16149 12.8547 1.24478 4.29342 -0.200463 -0.628084 -23.4915 26.1052 3.70413 37.8246 -0.0 -0.0 -0.0 0.0 -0.0 5.02053 33.6483 -1.37032 -3.48643 -0.127764 -0.519722 7.68445 15.6028 1.20139 -15.2352 0.0 0.0 0.0 0.0 0.0 
3102.81 761.385 -681.418 168.904 -65.1783 164.427 -2.29139 0.665826 2.68606 -2.28751 0.493621 2.72295 -2.25897 -0.198612 2.76017 -2.26952 0.239628 2.75691 -2.46599 13.9146 -3.47252 -1.97998 27.9423 -1.80624 -0.0 0.0 -0.0 2.49485 12.0019 5.60247 -30.0958 -25.379 65.6328 0.612031 -16.8665 0.0907407 24.3045 0.207006 -3.07459 0.952815 26.8437 16.0208 -0.0 0.0 -0.0 6.56933 15.6673 -12.161 5.72164 26.2731 -63.3107 3.30949 58.6046 -1.85773 -10.0174 0.458686 -1.19414 -0.153676 9.6224 5.13146 0.0 0.0 0.0 -1.99643 13.953 0.214231 4.85861 -0.230348 -0.709617 -24.5648 26.5066 3.88222 37.1329 -0.0 -0.0 -0.0 0.0 -0.0 2.44723 32.2696 0.605341 -5.2733 -0.180917 -0.788789 10.1876 15.6258 1.5778 -14.4515 0.0 0.0 0.0 0.0 0.0 
3113.97 764.184 -677.156 169.14 -65.4417 164.946 -2.16384 0.744129 2.47863 -2.16061 0.584952 2.52092 -2.13047 -0.0540044 2.58729 -2.13963 0.35515 2.56338 -1.23999 14.675 -2.16278 -0.678419 28.1395 -0.620619 -0.0 0.0 -0.0 2.43347 13.2655 5.57127 -29.3668 -25.2724 64.9658 0.622434 -17.1365 0.0937826 22.6392 0.234656 -2.86368 0.631336 25.4989 13.7386 -0.0 0.0 -0.0 6.45135 14.911 -11.9566 2.56805 25.6335 -63.2243 3.6023 60.7188 -2.11048 -9.87866 0.450918 -1.17818 -0.0930158 10.4487 5.07348 0.0 0.0 0.0 -3.85029 14.7442 0.245224 4.90378 -0.232771 -0.71612 -24.9772 27.1419 3.96179 36.6885 -0.0 -0.0 -0.0 0.0 -0.0 1.84171 31.0625 -0.500096 -4.66324 -0.163714 -0.696745 11.5204 15.5573 1.77365 -14.3052 0.0 0.0 0.0 0.0 0.0 
3130.54 763.207 -675.695 168.099 -65.8083 164.539 -2.26211 0.822084 2.31946 -2.25937 0.672868 2.36703 -2.22745 0.0650356 2.4599 -2.23561 0.4526 2.4188 -0.461766 15.2842 -1.11522 0.145938 28.2818 0.386874 -0.0 0.0 -0.0 2.38231 14.1766 5.53822 -28.9003 -25.1457 64.3506 0.62973 -17.3254 0.0959437 21.4735 0.250358 -2.71561 0.383498 24.4875 11.9612 -0.0 0.0 -0.0 6.37389 14.4878 -11.8174 -0.0526574 25.1392 -63.2292 3.74272 61.6428 -2.23351 -9.78201 0.445531 -1.16705 -0.0434196 10.9452 4.94969 0.0 0.0 0.0 -4.09241 15.253 -0.642466 5.23596 -0.25075 -0.76389 -25.169 27.5943 4.0029 36.3176 -0.0 -0.0 -0.0 0.0 -0.0 -0.151108 30.0764 0.258472 -4.48993 -0.158649 -0.67063 12.262 15.4008 1.87973 -14.2072 0.0 0.0 0.0 0.0 0.0 
3142.78 769.605 -675.704 166.987 -65.7459 163.55 -2.26395 0.832405 2.22115 -2.26147 0.689418 2.26958 -2.23032 0.105128 2.3696 -2.23784 0.477942 2.32331 0.135533 15.8416 -0.254479 0.784591 28.4821 1.23507 -0.0 0.0 -0.0 2.3357 14.9859 5.5078 -28.1839 -25.0174 63.3077 0.639937 -17.589 0.0990057 20.5619 0.260536 -2.59961 0.17485 23.7112 10.4744 -0.0 0.0 -0.0 6.06208 14.2065 -11.1677 -3.09516 24.6125 -62.9978 3.70906 61.4262 -2.20393 -9.75561 0.444062 -1.16401 0.0205578 11.0444 4.55901 0.0 0.0 0.0 -5.04714 15.6972 -0.955194 4.12195 -0.191556 -0.603292 -24.9064 28.0858 3.97303 36.1603 -0.0 -0.0 -0.0 0.0 -0.0 -0.837519 29.3889 0.485965 -3.67073 -0.133635 -0.547397 12.6349 15.2709 1.93196 -14.1751 0.0 0.0 0.0 0.0 0.0 
3158.54 764.61 -674.728 166.409 -66.1906 163.507 -2.16614 0.844035 2.09078 -2.16399 0.709314 2.14022 -2.1341 0.160279 2.24894 -2.14079 0.51336 2.19545 0.479106 16.2769 0.427505 1.15202 28.6404 1.93835 -0.0 0.0 -0.0 2.29015 15.5153 5.46433 -27.6829 -24.8341 62.2396 0.681498 -18.6545 0.111934 19.833 0.267346 -2.50675 -0.00947214 22.9718 9.12923 -0.0 0.0 -0.0 5.936 14.6545 -10.8685 -5.27946 24.6063 -62.8862 3.67996 61.2365 -2.17839 -9.74732 0.443601 -1.16306 0.0999497 10.686 3.86889 0.0 0.0 0.0 -5.68301 16.0014 -0.943159 3.31313 -0.150545 -0.486001 -23.9672 28.4262 3.83122 36.1919 -0.0 -0.0 -0.0 0.0 -0.0 -2.1026 28.7463 0.471227 -3.12755 -0.116078 -0.465885 12.6095 15.149 1.92654 -14.2101 0.0 0.0 0.0 0.0 0.0 
3170.74 761.023 -676.867 165.522 -67.1954 162.389 -2.08266 0.778063 1.99207 -2.08069 0.649753 2.03752 -2.05458 0.13077 2.13457 -2.06064 0.466171 2.08717 -0.32447 16.3894 1.30654 0.25083 28.3008 3.07769 -0.0 0.0 -0.0 2.01864 16.5437 5.09549 -27.35 -24.6742 61.4042 0.774997 -21.0023 0.143655 18.58 0.276289 -2.34696 -0.417805 21.8675 6.31528 -0.0 0.0 -0.0 5.9887 14.9423 -10.9619 -6.75179 24.6384 -62.649 3.15056 57.3383 -1.72298 -9.91142 0.452748 -1.18195 0.127082 8.27462 2.65583 0.0 0.0 0.0 -6.77164 16.1967 -0.653166 2.70845 -0.120972 -0.397949 -22.6586 28.6745 3.62715 36.2115 -0.0 -0.0 -0.0 0.0 -0.0 -2.84937 27.6767 0.742799 -2.72512 -0.102571 -0.405599 11.7509 13.6986 1.78344 -14.1913 0.0 0.0 0.0 0.0 0.0 
3179.29 767.147 -678.466 164.699 -67.7126 161.546 -1.94387 0.734751 1.91944 -1.94203 0.611147 1.96228 -1.91841 0.116629 2.0519 -1.92402 0.439159 2.00776 -0.957803 16.463 1.95838 -0.450458 28.0487 3.91979 -0.0 0.0 -0.0 1.97335 17.2788 5.06997 -26.0432 -24.6396 60.781 0.888937 -23.7662 0.187058 17.7021 0.280472 -2.23491 -0.739025 20.761 3.97608 -0.0 0.0 -0.0 6.14924 15.3252 -11.2803 -8.99495 24.6556 -62.5351 2.74401 53.6494 -1.38778 -10.1288 0.464951 -1.20694 0.169681 6.2466 1.50432 0.0 0.0 0.0 -7.44541 16.32 -0.482124 2.31928 -0.102432 -0.341119 -21.5496 28.8481 3.45259 36.2368 -0.0 -0.0 -0.0 0.0 -0.0 -3.99115 26.5518 1.17949 -2.79353 -0.104898 -0.415841 11.1513 12.39 1.68193 -14.0835 0.0 0.0 0.0 0.0 0.0 
3185.79 764.249 -680.715 162.595 -68.7387 159.352 -1.82851 0.699139 1.85361 -1.82678 0.579794 1.89432 -1.80519 0.1066 1.97816 -1.81041 0.417617 1.93653 -2.55838 16.2132 2.71464 -2.20158 27.3464 5.02738 -0.0 0.0 -0.0 1.82898 19.3445 4.9779 -24.8427 -24.2627 59.2065 1.05206 -27.526 0.257697 15.5948 0.283503 -1.9658 -1.13832 18.6116 0.677791 -0.0 0.0 -0.0 6.25902 15.6317 -11.4953 -10.0054 24.5655 -62.1206 2.5085 51.1668 -1.20113 -9.87547 0.45074 -1.17781 0.151526 3.93192 0.644539 0.0 0.0 0.0 -7.86004 16.3609 0.374926 2.04738 -0.0897086 -0.301341 -20.7676 28.9145 3.32792 36.6419 -0.0 -0.0 -0.0 0.0 -0.0 -4.63656 24.1504 0.806237 -3.28465 -0.121235 -0.489443 10.7498 10.9164 1.60928 -13.4035 0.0 0.0 0.0 0.0 0.0 
3189.6 769.607 -684.364 161.144 -70.2392 157.51 -1.73241 0.601621 1.74758 -1.73085 0.489217 1.7823 -1.71358 0.0485688 1.84757 -1.71818 0.339699 1.81673 -3.71031 16.0237 3.25218 -3.44936 26.8317 5.79935 -0.0 0.0 -0.0 1.70367 21.0609 4.90126 -23.581 -24.0333 57.9388 1.27023 -32.1782 0.366387 14.0335 0.279365 -1.76643 -1.52624 16.3269 -2.70922 -0.0 0.0 -0.0 6.29751 15.857 -11.5627 -10.7395 24.4441 -61.7326 2.17293 47.1013 -0.947192 -9.99046 0.457173 -1.19104 0.121677 1.3168 -0.259208 0.0 0.0 0.0 -8.15734 16.371 0.726942 2.06949 -0.0907363 -0.304579 -19.2044 28.9695 3.07657 36.9433 -0.0 -0.0 -0.0 0.0 -0.0 -5.13624 21.7096 1.87257 -3.29902 -0.121704 -0.491598 10.2951 9.01013 1.52756 -12.9633 0.0 0.0 0.0 0.0 0.0 
